# xmcd CD database file
#
# Track frame offsets:
#	150
#	13038
#	25042
#	39435
#	53983
#	73322
#	84469
#	100201
#	114614
#	130990
#	141968
#	156213
#	170509
#	182817
#	197444
#	211891
#
# Disc length: 3213 seconds
#
# Revision: 0
# Processed by: cddbd v1.5PL3 Copyright (c) Steve Scherf et al.
# Submitted via: CDex 1.51
#
DISCID=df0c8b10
DTITLE=Sojiro - Ocarina Etude Collection Request CD2
DYEAR=2003
DGENRE=New Age
TTITLE0=Annie Laurie
TTITLE1=Massa's In De Cold Ground
TTITLE2=Home On The Range
TTITLE3=Old Black Joe
TTITLE4=My Old Kentucky Home
TTITLE5=Chinese Title
TTITLE6=Die Lorelei
TTITLE7=The First Noel
TTITLE8=Wiegenlied
TTITLE9=Traumerei
TTITLE10=Wiegenlied
TTITLE11=Haidenroslein
TTITLE12=Ave Maria
TTITLE13=Largo
TTITLE14=Romeo And Juliet
TTITLE15=Symphony No.9 2Mov.
EXTD=YEAR: 2003
EXTT0=
EXTT1=
EXTT2=
EXTT3=
EXTT4=
EXTT5=
EXTT6=
EXTT7=
EXTT8=
EXTT9=
EXTT10=
EXTT11=
EXTT12=
EXTT13=
EXTT14=
EXTT15=
PLAYORDER=
